<svg id="Group_8" data-name="Group 8" xmlns="http://www.w3.org/2000/svg" xmlns:xlink="http://www.w3.org/1999/xlink" width="756.199" height="756.182" viewBox="0 0 756.199 756.182">
  <defs>
    <clipPath id="clip-path">
      <rect id="Rectangle_1" data-name="Rectangle 1" width="756.199" height="756.182" fill="none"/>
    </clipPath>
    <linearGradient id="linear-gradient" x1="0.122" y1="0.825" x2="0.888" y2="0.163" gradientUnits="objectBoundingBox">
      <stop offset="0" stop-color="#4ee287"/>
      <stop offset="1" stop-color="#429cf7"/>
    </linearGradient>
    <clipPath id="clip-path-2">
      <path id="Path_11" data-name="Path 11" d="M296.586,125.5l-.115.019-.094.028a74.37,74.37,0,0,0,33.444,144.929l.1-.021.094-.021a74.27,74.27,0,0,0-4.563-145.7A76.363,76.363,0,0,0,312.9,123.69a73.438,73.438,0,0,0-16.312,1.807" transform="translate(-238.897 -123.69)" fill="none"/>
    </clipPath>
  </defs>
  <g id="Group_3" data-name="Group 3">
    <g id="Group_2" data-name="Group 2" clip-path="url(#clip-path)">
      <path id="Path_10" data-name="Path 10" d="M746.861,292.938c-10.932-47.225-32.027-93.682-61.042-134.35-29-40.682-66.07-75.771-107.167-101.457C537.535,31.44,489.743,13.532,440.5,5.291,391.4-2.916,340.56-1.554,293.441,9.224l-.48.112-.5.117v.009C245.4,20.423,199.086,41.471,158.582,70.371c-40.694,29.01-75.75,66.087-101.41,107.167-25.718,41.115-43.629,88.886-51.9,138.173-8.21,49.25-6.829,100.27,4.064,147.5,10.932,47.256,32.03,93.7,61.023,134.381s66.07,75.732,107.185,101.429c41.117,25.681,88.89,43.629,138.157,51.858,49.1,8.226,99.916,6.866,147.018-3.914l.478-.133.52-.075v-.037c47.061-10.933,93.32-32.009,133.88-60.89,40.638-29.035,75.732-66.049,101.469-107.167,25.66-41.117,43.592-88.869,51.837-138.176,8.247-49.269,6.829-100.289-4.045-147.544" transform="translate(0 -0.001)" fill="url(#linear-gradient)"/>
    </g>
  </g>
  <g id="Group_5" data-name="Group 5" transform="translate(559.259 289.559)">
    <g id="Group_4" data-name="Group 4" clip-path="url(#clip-path-2)">
      <rect id="Rectangle_2" data-name="Rectangle 2" width="149.759" height="149.178" transform="translate(-0.571 0)" fill="#fff"/>
    </g>
  </g>
  <g id="Group_7" data-name="Group 7">
    <g id="Group_6" data-name="Group 6" clip-path="url(#clip-path)">
      <path id="Path_12" data-name="Path 12" d="M370.73,502.384q-75.768,0-139.861-13.983-64.124-13.979-110.2-41.614-46.053-27.674-71.417-69.06-25.343-41.3-25.316-95.515,0-50.467,24.185-91.524,24.163-41.078,70.268-70.46,44.242-28.19,109.753-43.62Q293.616,61.2,371.172,61.2q42.89,0,77.345,3.013,34.43,2.974,63.65,7.833,30.55,5.425,55.442,12.112,24.883,6.714,43.573,12.407V199.519H591.1q-12.743-6.816-32.182-16.176-19.359-9.379-44.013-18.44A414.886,414.886,0,0,0,460.6,149.569a298.834,298.834,0,0,0-62.519-6.241,328.076,328.076,0,0,0-70.23,7.278,204.958,204.958,0,0,0-61.6,24.03,128.978,128.978,0,0,0-43.571,42.976q-16.687,26.768-16.684,64.9,0,39.824,18.026,66.574a132.377,132.377,0,0,0,45.411,42.143,205.254,205.254,0,0,0,62.06,22.3A348.849,348.849,0,0,0,399,420.245a336.907,336.907,0,0,0,63.207-5.946,333.579,333.579,0,0,0,57.727-16.2,442.725,442.725,0,0,0,41.518-17.567q19.159-9.379,31.491-16.176h18.239V465.869q-25.546,7.16-48.808,13.4-23.3,6.272-48.847,10.837-33.307,6.012-62.5,9.149t-80.3,3.125" transform="translate(32.101 82.067)" fill="#fff"/>
    </g>
  </g>
</svg>
